<svg width="84" height="84" viewBox="0 0 84 84" fill="none" xmlns="http://www.w3.org/2000/svg">
<path d="M84 54.2479C84 72.9387 70.2555 81.1398 59.6348 83.9028C57.3668 84.4914 55.881 82.2819 57.2355 80.6522C61.8555 75.0955 67.2 66.6177 67.2 58.645C67.2 50.0749 58.569 39.9586 51.828 33.7167C50.2897 32.2934 47.6017 33.2335 47.5177 35.1575C47.2395 41.5268 46.0373 50.0398 40.8607 56.7166C40.6774 56.9661 40.4244 57.1746 40.1235 57.3242C39.8226 57.4739 39.4827 57.5602 39.1332 57.5757C38.7837 57.5913 38.4348 57.5356 38.1166 57.4135C37.7985 57.2914 37.5205 57.1065 37.3065 56.8748C35.6895 55.1616 34.0725 53.0488 32.4555 51.3751C31.584 50.479 30.009 50.4659 29.0062 51.2609C25.0845 54.3665 19.5982 59.2073 19.5982 65.2296C19.5982 69.3148 21.4883 73.5976 23.625 77.0458C24.801 78.9347 22.7115 81.2189 20.454 80.2261C11.0932 76.1234 0 67.7949 0 54.2479C0 40.4286 22.6275 21.2811 31.269 3.19209C32.634 0.336861 36.834 -1.0029 39.7583 0.859586C57.4507 12.1399 84 33.9451 84 54.2479Z" fill="#D4D4D4"/>
</svg>
