<svg width="84" height="84" viewBox="0 0 84 84" fill="none" xmlns="http://www.w3.org/2000/svg">
<path d="M41.994 22.7309C38.1841 22.7309 34.4598 23.8606 31.292 25.9773C28.1242 28.094 25.6552 31.1024 24.1972 34.6223C22.7392 38.1422 22.3578 42.0154 23.101 45.752C23.8443 49.4887 25.6789 52.9211 28.3729 55.615C31.0669 58.309 34.4993 60.1437 38.2359 60.8869C41.9726 61.6302 45.8458 61.2487 49.3656 59.7908C52.8855 58.3328 55.894 55.8638 58.0107 52.696C60.1273 49.5282 61.2571 45.8039 61.2571 41.994C61.2518 36.8867 59.2206 31.9902 55.6092 28.3788C51.9978 24.7674 47.1012 22.7362 41.994 22.7309ZM41.994 54.836C39.4541 54.836 36.9712 54.0829 34.8593 52.6718C32.7474 51.2607 31.1014 49.255 30.1295 46.9084C29.1575 44.5618 28.9032 41.9797 29.3987 39.4886C29.8942 36.9975 31.1173 34.7093 32.9133 32.9133C34.7093 31.1173 36.9975 29.8942 39.4886 29.3987C41.9797 28.9032 44.5618 29.1575 46.9084 30.1295C49.255 31.1014 51.2607 32.7474 52.6718 34.8593C54.0829 36.9712 54.836 39.4541 54.836 41.994C54.836 45.3999 53.483 48.6663 51.0747 51.0747C48.6663 53.483 45.3999 54.836 41.994 54.836ZM77.3097 42.8608C77.3257 42.2829 77.3257 41.705 77.3097 41.1271L83.2973 33.6466C83.6112 33.2539 83.8285 32.7929 83.9317 32.3007C84.0349 31.8086 84.021 31.2991 83.8912 30.8134C82.9096 27.1237 81.4413 23.5811 79.5249 20.2789C79.274 19.8467 78.9256 19.4791 78.5076 19.2053C78.0896 18.9315 77.6134 18.759 77.117 18.7017L67.5978 17.6422C67.2019 17.2249 66.8006 16.8235 66.3939 16.4383L65.2702 6.89502C65.2124 6.39824 65.0394 5.92183 64.7648 5.50378C64.4903 5.08573 64.1219 4.73759 63.689 4.48713C60.3856 2.57425 56.8433 1.1074 53.1545 0.124842C52.6684 -0.00439413 52.1588 -0.0176123 51.6667 0.0862523C51.1745 0.190117 50.7137 0.408158 50.3213 0.7228L42.8608 6.67831H41.1271L33.6466 0.702735C33.2539 0.388779 32.7929 0.171466 32.3007 0.068301C31.8086 -0.0348638 31.2991 -0.0209959 30.8134 0.108789C27.1243 1.09212 23.5819 2.56035 20.2789 4.47509C19.8467 4.72602 19.4791 5.07435 19.2053 5.49238C18.9315 5.9104 18.759 6.38657 18.7017 6.88298L17.6422 16.4182C17.2249 16.8168 16.8235 17.2182 16.4383 17.6222L6.89502 18.7177C6.39824 18.7755 5.92183 18.9486 5.50378 19.2231C5.08573 19.4976 4.73759 19.866 4.48713 20.2989C2.57425 23.6024 1.1074 27.1447 0.124842 30.8334C-0.00439413 31.3195 -0.0176123 31.8292 0.0862523 32.3213C0.190117 32.8134 0.408158 33.2743 0.7228 33.6667L6.67831 41.1271V42.8608L0.702735 50.3413C0.388779 50.7341 0.171466 51.1951 0.068301 51.6872C-0.0348638 52.1793 -0.0209959 52.6888 0.108789 53.1746C1.09036 56.8643 2.55869 60.4069 4.47509 63.7091C4.72602 64.1413 5.07435 64.5089 5.49238 64.7827C5.9104 65.0565 6.38657 65.2289 6.88298 65.2863L16.4022 66.3457C16.8008 66.7631 17.2021 67.1644 17.6061 67.5497L18.7177 77.0929C18.7755 77.5897 18.9486 78.0661 19.2231 78.4842C19.4976 78.9022 19.866 79.2504 20.2989 79.5008C23.6024 81.4137 27.1447 82.8806 30.8334 83.8631C31.3195 83.9924 31.8292 84.0056 32.3213 83.9017C32.8134 83.7978 33.2743 83.5798 33.6667 83.2652L41.1271 77.3097C41.705 77.3257 42.2829 77.3257 42.8608 77.3097L50.3413 83.2973C50.7341 83.6112 51.1951 83.8285 51.6872 83.9317C52.1793 84.0349 52.6888 84.021 53.1746 83.8912C56.8643 82.9096 60.4069 81.4413 63.7091 79.5249C64.1413 79.274 64.5089 78.9256 64.7827 78.5076C65.0565 78.0896 65.2289 77.6134 65.2863 77.117L66.3457 67.5978C66.7631 67.2019 67.1644 66.8006 67.5497 66.3939L77.0929 65.2702C77.5897 65.2124 78.0661 65.0394 78.4842 64.7648C78.9022 64.4903 79.2504 64.1219 79.5008 63.689C81.4137 60.3856 82.8806 56.8433 83.8631 53.1545C83.9924 52.6684 84.0056 52.1588 83.9017 51.6667C83.7978 51.1745 83.5798 50.7137 83.2652 50.3213L77.3097 42.8608ZM70.8485 40.2523C70.9167 41.4124 70.9167 42.5756 70.8485 43.7357C70.8007 44.53 71.0495 45.3137 71.5468 45.9349L77.2414 53.0502C76.588 55.1269 75.7513 57.1414 74.7412 59.0699L65.6715 60.0973C64.8817 60.185 64.1524 60.5625 63.6248 61.1567C62.8523 62.0256 62.0296 62.8483 61.1608 63.6208C60.5665 64.1484 60.189 64.8777 60.1013 65.6675L59.094 74.7292C57.1657 75.7397 55.1511 76.5764 53.0743 77.2294L45.955 71.5347C45.3853 71.0796 44.6776 70.8319 43.9484 70.8324H43.7557C42.5956 70.9007 41.4325 70.9007 40.2723 70.8324C39.4781 70.7846 38.6943 71.0335 38.0731 71.5307L30.9378 77.2294C28.8611 76.576 26.8466 75.7393 24.918 74.7292L23.8907 65.6715C23.803 64.8817 23.4255 64.1524 22.8312 63.6248C21.9624 62.8523 21.1396 62.0296 20.3671 61.1608C19.8395 60.5665 19.1103 60.189 18.3204 60.1013L9.25876 59.09C8.24822 57.1617 7.41151 55.1471 6.75857 53.0703L12.4532 45.9509C12.9505 45.3297 13.1993 44.546 13.1515 43.7517C13.0833 42.5916 13.0833 41.4285 13.1515 40.2683C13.1993 39.4741 12.9505 38.6903 12.4532 38.0691L6.75857 30.9378C7.41201 28.8611 8.2487 26.8466 9.25876 24.918L18.3164 23.8907C19.1063 23.803 19.8355 23.4255 20.3631 22.8312C21.1356 21.9624 21.9584 21.1396 22.8272 20.3671C23.4239 19.8392 23.8029 19.1083 23.8907 18.3164L24.898 9.25876C26.8263 8.24822 28.8409 7.41151 30.9177 6.75857L38.037 12.4532C38.6582 12.9505 39.442 13.1993 40.2362 13.1515C41.3964 13.0833 42.5595 13.0833 43.7196 13.1515C44.5139 13.1993 45.2976 12.9505 45.9188 12.4532L53.0502 6.75857C55.1269 7.41201 57.1414 8.2487 59.0699 9.25876L60.0973 18.3164C60.185 19.1063 60.5625 19.8355 61.1567 20.3631C62.0256 21.1356 62.8483 21.9584 63.6208 22.8272C64.1484 23.4215 64.8777 23.799 65.6675 23.8867L74.7292 24.894C75.7397 26.8223 76.5764 28.8368 77.2294 30.9137L71.5347 38.033C71.0327 38.6594 70.7836 39.4512 70.8364 40.2523H70.8485Z" fill="white"/>
</svg>
