<svg width="84" height="84" viewBox="0 0 84 84" fill="none" xmlns="http://www.w3.org/2000/svg">
<g filter="url(#filter0_d_19_761)">
<path fill-rule="evenodd" clip-rule="evenodd" d="M42.5431 2.66455C41.2442 1.58573 39.6454 1 37.9996 1C36.3539 1 34.7551 1.58573 33.4561 2.66455L2.43595 28.4196C-0.346389 30.7384 1.18538 35.4983 4.71141 35.4983H8.75173L11.7857 67.8858C11.9683 69.8352 12.8228 71.6427 14.1833 72.9573C15.5439 74.2719 17.3135 74.9999 19.1485 75H56.8508C58.6858 74.9999 60.4554 74.2719 61.8159 72.9573C63.1765 71.6427 64.031 69.8352 64.2136 67.8858L67.2475 35.4983H71.2879C74.8102 35.4983 76.3494 30.7384 73.5633 28.4236L42.5431 2.66455ZM37.9996 55.2492C40.9435 55.2492 43.7668 54.0006 45.8484 51.7782C47.93 49.5558 49.0994 46.5416 49.0994 43.3987C49.0994 40.2557 47.93 37.2415 45.8484 35.0191C43.7668 32.7967 40.9435 31.5482 37.9996 31.5482C35.0558 31.5482 32.2325 32.7967 30.1509 35.0191C28.0693 37.2415 26.8999 40.2557 26.8999 43.3987C26.8999 46.5416 28.0693 49.5558 30.1509 51.7782C32.2325 54.0006 35.0558 55.2492 37.9996 55.2492Z" fill="white"/>
</g>
<defs>
<filter id="filter0_d_19_761" x="0" y="0" width="84" height="84" filterUnits="userSpaceOnUse" color-interpolation-filters="sRGB">
<feFlood flood-opacity="0" result="BackgroundImageFix"/>
<feColorMatrix in="SourceAlpha" type="matrix" values="0 0 0 0 0 0 0 0 0 0 0 0 0 0 0 0 0 0 127 0" result="hardAlpha"/>
<feOffset dx="4" dy="4"/>
<feGaussianBlur stdDeviation="2.5"/>
<feComposite in2="hardAlpha" operator="out"/>
<feColorMatrix type="matrix" values="0 0 0 0 0 0 0 0 0 0 0 0 0 0 0 0 0 0 0.25 0"/>
<feBlend mode="normal" in2="BackgroundImageFix" result="effect1_dropShadow_19_761"/>
<feBlend mode="normal" in="SourceGraphic" in2="effect1_dropShadow_19_761" result="shape"/>
</filter>
</defs>
</svg>
