<svg width="94" height="94" viewBox="0 0 94 94" fill="none" xmlns="http://www.w3.org/2000/svg">
<path d="M35.8973 12.6136L35.8877 12.7225V12.7285C35.4076 18.1964 34.3863 22.986 33.214 25.674C32.5475 27.1904 30.4126 30.3959 26.8458 33.5636C23.3252 36.6808 18.8168 39.3964 13.6132 40.5244C11.0234 41.0839 8.33976 42.2614 6.25044 44.0443C4.14327 45.8425 2.5 48.3983 2.5 51.5972V72.9702C2.5 76.1506 4.13167 78.7714 6.37369 80.5781C8.59906 82.3713 11.5257 83.4657 14.5434 83.7219L14.5461 83.7222C21.2802 84.2868 24.3067 85.749 27.5389 87.3107L27.5878 87.3343L27.8831 87.4807C30.0754 88.6074 32.4124 89.5307 34.8493 90.2365L34.8662 90.2414L34.8832 90.2461C37.8028 91.0472 41.1627 91.5 45.4209 91.5H68.9998C75.9867 91.5 81.268 88.6576 84.059 84.7737C85.4173 82.8874 86.2333 80.6776 86.2333 78.4417C86.2333 77.8391 86.1743 77.2084 86.0367 76.5698C87.1766 75.2099 88.1089 73.7245 88.7996 72.144L88.8062 72.129L88.8125 72.1139C89.554 70.3549 90.1757 67.779 89.3199 65.1806C89.5744 64.6786 89.7825 64.1819 89.956 63.7057L89.9595 63.696C90.5881 61.9478 90.8682 60.0702 90.8682 58.2763C90.8682 56.4824 90.5881 54.6047 89.9595 52.8565L89.9556 52.8459C89.8559 52.5724 89.7454 52.2951 89.6228 52.0159C91.9253 48.5409 91.9553 44.7371 90.5453 41.5037L90.543 41.4986C88.8377 37.6117 85.0072 34.3962 80.8096 33.2843L80.8078 33.2839C74.899 31.7235 68.3705 31.7291 63.5148 32.0524C65.541 22.2499 63.5983 14.1077 62.1845 9.94872L62.1832 9.94468C60.8624 6.08102 57.1171 3.86706 53.4898 3.14554C53.4889 3.14537 53.488 3.14519 53.4871 3.14502L51.7332 2.79322L51.7259 2.79177C47.8927 2.0349 44.1525 2.7956 41.2647 4.55173C38.3954 6.29665 36.2009 9.1497 35.8973 12.6136Z" fill="#5BCEFF" stroke="white" stroke-width="5"/>
</svg>
